<mxfile host="app.diagrams.net" modified="2023-01-23T16:00:20.806Z" agent="5.0 (Macintosh; Intel Mac OS X 10_15_7) AppleWebKit/537.36 (KHTML, like Gecko) Chrome/109.0.0.0 Safari/537.36" etag="xn8pDui7m6cdEt_JG1No" version="20.8.10" type="github">
  <diagram id="C5RBs43oDa-KdzZeNtuy" name="Page-1">
    <mxGraphModel dx="954" dy="591" grid="1" gridSize="10" guides="1" tooltips="1" connect="1" arrows="1" fold="1" page="1" pageScale="1" pageWidth="413" pageHeight="583" math="0" shadow="0">
      <root>
        <mxCell id="WIyWlLk6GJQsqaUBKTNV-0" />
        <mxCell id="WIyWlLk6GJQsqaUBKTNV-1" parent="WIyWlLk6GJQsqaUBKTNV-0" />
        <mxCell id="zkfFHV4jXpPFQw0GAbJ--0" value="Branch" style="swimlane;fontStyle=2;align=center;verticalAlign=top;childLayout=stackLayout;horizontal=1;startSize=26;horizontalStack=0;resizeParent=1;resizeLast=0;collapsible=1;marginBottom=0;rounded=0;shadow=0;strokeWidth=1;" parent="WIyWlLk6GJQsqaUBKTNV-1" vertex="1">
          <mxGeometry x="310" y="24" width="270" height="236" as="geometry">
            <mxRectangle x="230" y="140" width="160" height="26" as="alternateBounds" />
          </mxGeometry>
        </mxCell>
        <mxCell id="zkfFHV4jXpPFQw0GAbJ--1" value="Name : String" style="text;align=left;verticalAlign=top;spacingLeft=4;spacingRight=4;overflow=hidden;rotatable=0;points=[[0,0.5],[1,0.5]];portConstraint=eastwest;" parent="zkfFHV4jXpPFQw0GAbJ--0" vertex="1">
          <mxGeometry y="26" width="270" height="26" as="geometry" />
        </mxCell>
        <mxCell id="TPlCCfwan0xk1k_wp_Np-145" value="Branch_id : int" style="text;align=left;verticalAlign=top;spacingLeft=4;spacingRight=4;overflow=hidden;rotatable=0;points=[[0,0.5],[1,0.5]];portConstraint=eastwest;rounded=0;shadow=0;html=0;" parent="zkfFHV4jXpPFQw0GAbJ--0" vertex="1">
          <mxGeometry y="52" width="270" height="26" as="geometry" />
        </mxCell>
        <mxCell id="zkfFHV4jXpPFQw0GAbJ--2" value="Phone Number" style="text;align=left;verticalAlign=top;spacingLeft=4;spacingRight=4;overflow=hidden;rotatable=0;points=[[0,0.5],[1,0.5]];portConstraint=eastwest;rounded=0;shadow=0;html=0;" parent="zkfFHV4jXpPFQw0GAbJ--0" vertex="1">
          <mxGeometry y="78" width="270" height="26" as="geometry" />
        </mxCell>
        <mxCell id="zkfFHV4jXpPFQw0GAbJ--3" value="Address : Address()" style="text;align=left;verticalAlign=top;spacingLeft=4;spacingRight=4;overflow=hidden;rotatable=0;points=[[0,0.5],[1,0.5]];portConstraint=eastwest;rounded=0;shadow=0;html=0;" parent="zkfFHV4jXpPFQw0GAbJ--0" vertex="1">
          <mxGeometry y="104" width="270" height="26" as="geometry" />
        </mxCell>
        <mxCell id="TPlCCfwan0xk1k_wp_Np-131" value="&lt;span style=&quot;color: rgb(0, 0, 0); font-family: Helvetica; font-size: 12px; font-style: normal; font-variant-ligatures: normal; font-variant-caps: normal; font-weight: 400; letter-spacing: normal; orphans: 2; text-align: left; text-indent: 0px; text-transform: none; widows: 2; word-spacing: 0px; -webkit-text-stroke-width: 0px; background-color: rgb(251, 251, 251); text-decoration-thickness: initial; text-decoration-style: initial; text-decoration-color: initial; float: none; display: inline !important;&quot;&gt;Email Address : email&lt;/span&gt;" style="text;whiteSpace=wrap;html=1;fontSize=16;fontFamily=Georgia;" parent="zkfFHV4jXpPFQw0GAbJ--0" vertex="1">
          <mxGeometry y="130" width="270" height="40" as="geometry" />
        </mxCell>
        <mxCell id="zkfFHV4jXpPFQw0GAbJ--4" value="" style="line;html=1;strokeWidth=1;align=left;verticalAlign=middle;spacingTop=-1;spacingLeft=3;spacingRight=3;rotatable=0;labelPosition=right;points=[];portConstraint=eastwest;" parent="zkfFHV4jXpPFQw0GAbJ--0" vertex="1">
          <mxGeometry y="170" width="270" height="8" as="geometry" />
        </mxCell>
        <mxCell id="zkfFHV4jXpPFQw0GAbJ--5" value="getAllComedians : List" style="text;align=left;verticalAlign=top;spacingLeft=4;spacingRight=4;overflow=hidden;rotatable=0;points=[[0,0.5],[1,0.5]];portConstraint=eastwest;" parent="zkfFHV4jXpPFQw0GAbJ--0" vertex="1">
          <mxGeometry y="178" width="270" height="26" as="geometry" />
        </mxCell>
        <mxCell id="TPlCCfwan0xk1k_wp_Np-132" value="getShowDetails :Â EVENTS()" style="text;align=left;verticalAlign=top;spacingLeft=4;spacingRight=4;overflow=hidden;rotatable=0;points=[[0,0.5],[1,0.5]];portConstraint=eastwest;" parent="zkfFHV4jXpPFQw0GAbJ--0" vertex="1">
          <mxGeometry y="204" width="270" height="26" as="geometry" />
        </mxCell>
        <mxCell id="zkfFHV4jXpPFQw0GAbJ--17" value="Address" style="swimlane;fontStyle=0;align=center;verticalAlign=top;childLayout=stackLayout;horizontal=1;startSize=26;horizontalStack=0;resizeParent=1;resizeLast=0;collapsible=1;marginBottom=0;rounded=0;shadow=0;strokeWidth=1;" parent="WIyWlLk6GJQsqaUBKTNV-1" vertex="1">
          <mxGeometry x="750" y="21" width="160" height="242" as="geometry">
            <mxRectangle x="550" y="140" width="160" height="26" as="alternateBounds" />
          </mxGeometry>
        </mxCell>
        <mxCell id="zkfFHV4jXpPFQw0GAbJ--18" value="Street" style="text;align=left;verticalAlign=top;spacingLeft=4;spacingRight=4;overflow=hidden;rotatable=0;points=[[0,0.5],[1,0.5]];portConstraint=eastwest;" parent="zkfFHV4jXpPFQw0GAbJ--17" vertex="1">
          <mxGeometry y="26" width="160" height="26" as="geometry" />
        </mxCell>
        <mxCell id="zkfFHV4jXpPFQw0GAbJ--19" value="City" style="text;align=left;verticalAlign=top;spacingLeft=4;spacingRight=4;overflow=hidden;rotatable=0;points=[[0,0.5],[1,0.5]];portConstraint=eastwest;rounded=0;shadow=0;html=0;" parent="zkfFHV4jXpPFQw0GAbJ--17" vertex="1">
          <mxGeometry y="52" width="160" height="26" as="geometry" />
        </mxCell>
        <mxCell id="zkfFHV4jXpPFQw0GAbJ--20" value="State" style="text;align=left;verticalAlign=top;spacingLeft=4;spacingRight=4;overflow=hidden;rotatable=0;points=[[0,0.5],[1,0.5]];portConstraint=eastwest;rounded=0;shadow=0;html=0;" parent="zkfFHV4jXpPFQw0GAbJ--17" vertex="1">
          <mxGeometry y="78" width="160" height="26" as="geometry" />
        </mxCell>
        <mxCell id="zkfFHV4jXpPFQw0GAbJ--21" value="Postal Code" style="text;align=left;verticalAlign=top;spacingLeft=4;spacingRight=4;overflow=hidden;rotatable=0;points=[[0,0.5],[1,0.5]];portConstraint=eastwest;rounded=0;shadow=0;html=0;" parent="zkfFHV4jXpPFQw0GAbJ--17" vertex="1">
          <mxGeometry y="104" width="160" height="26" as="geometry" />
        </mxCell>
        <mxCell id="zkfFHV4jXpPFQw0GAbJ--22" value="Country" style="text;align=left;verticalAlign=top;spacingLeft=4;spacingRight=4;overflow=hidden;rotatable=0;points=[[0,0.5],[1,0.5]];portConstraint=eastwest;rounded=0;shadow=0;html=0;" parent="zkfFHV4jXpPFQw0GAbJ--17" vertex="1">
          <mxGeometry y="130" width="160" height="26" as="geometry" />
        </mxCell>
        <mxCell id="zkfFHV4jXpPFQw0GAbJ--23" value="" style="line;html=1;strokeWidth=1;align=left;verticalAlign=middle;spacingTop=-1;spacingLeft=3;spacingRight=3;rotatable=0;labelPosition=right;points=[];portConstraint=eastwest;" parent="zkfFHV4jXpPFQw0GAbJ--17" vertex="1">
          <mxGeometry y="156" width="160" height="6" as="geometry" />
        </mxCell>
        <mxCell id="zkfFHV4jXpPFQw0GAbJ--24" value="Validate()" style="text;align=left;verticalAlign=top;spacingLeft=4;spacingRight=4;overflow=hidden;rotatable=0;points=[[0,0.5],[1,0.5]];portConstraint=eastwest;" parent="zkfFHV4jXpPFQw0GAbJ--17" vertex="1">
          <mxGeometry y="162" width="160" height="26" as="geometry" />
        </mxCell>
        <mxCell id="zkfFHV4jXpPFQw0GAbJ--25" value="totalCapacity()" style="text;align=left;verticalAlign=top;spacingLeft=4;spacingRight=4;overflow=hidden;rotatable=0;points=[[0,0.5],[1,0.5]];portConstraint=eastwest;" parent="zkfFHV4jXpPFQw0GAbJ--17" vertex="1">
          <mxGeometry y="188" width="160" height="26" as="geometry" />
        </mxCell>
        <mxCell id="zkfFHV4jXpPFQw0GAbJ--26" value="" style="endArrow=open;shadow=0;strokeWidth=1;rounded=0;endFill=1;edgeStyle=elbowEdgeStyle;elbow=vertical;" parent="WIyWlLk6GJQsqaUBKTNV-1" source="zkfFHV4jXpPFQw0GAbJ--0" target="zkfFHV4jXpPFQw0GAbJ--17" edge="1">
          <mxGeometry x="0.5" y="41" relative="1" as="geometry">
            <mxPoint x="380" y="192" as="sourcePoint" />
            <mxPoint x="540" y="192" as="targetPoint" />
            <mxPoint x="-40" y="32" as="offset" />
          </mxGeometry>
        </mxCell>
        <mxCell id="zkfFHV4jXpPFQw0GAbJ--27" value="0..1" style="resizable=0;align=left;verticalAlign=bottom;labelBackgroundColor=none;fontSize=12;" parent="zkfFHV4jXpPFQw0GAbJ--26" connectable="0" vertex="1">
          <mxGeometry x="-1" relative="1" as="geometry">
            <mxPoint y="4" as="offset" />
          </mxGeometry>
        </mxCell>
        <mxCell id="zkfFHV4jXpPFQw0GAbJ--28" value="1" style="resizable=0;align=right;verticalAlign=bottom;labelBackgroundColor=none;fontSize=12;" parent="zkfFHV4jXpPFQw0GAbJ--26" connectable="0" vertex="1">
          <mxGeometry x="1" relative="1" as="geometry">
            <mxPoint x="-7" y="4" as="offset" />
          </mxGeometry>
        </mxCell>
        <mxCell id="zkfFHV4jXpPFQw0GAbJ--29" value="located at" style="text;html=1;resizable=0;points=[];;align=center;verticalAlign=middle;labelBackgroundColor=none;rounded=0;shadow=0;strokeWidth=1;fontSize=12;" parent="zkfFHV4jXpPFQw0GAbJ--26" vertex="1" connectable="0">
          <mxGeometry x="0.5" y="49" relative="1" as="geometry">
            <mxPoint x="-38" y="40" as="offset" />
          </mxGeometry>
        </mxCell>
        <mxCell id="TPlCCfwan0xk1k_wp_Np-191" style="edgeStyle=orthogonalEdgeStyle;rounded=0;orthogonalLoop=1;jettySize=auto;html=1;exitX=0.25;exitY=1;exitDx=0;exitDy=0;entryX=0.318;entryY=0;entryDx=0;entryDy=0;entryPerimeter=0;fontFamily=Georgia;fontSize=16;" parent="WIyWlLk6GJQsqaUBKTNV-1" source="TPlCCfwan0xk1k_wp_Np-108" target="zkfFHV4jXpPFQw0GAbJ--6" edge="1">
          <mxGeometry relative="1" as="geometry" />
        </mxCell>
        <mxCell id="TPlCCfwan0xk1k_wp_Np-108" value="Comedy_cafe" style="swimlane;fontStyle=2;align=center;verticalAlign=top;childLayout=stackLayout;horizontal=1;startSize=26;horizontalStack=0;resizeParent=1;resizeLast=0;collapsible=1;marginBottom=0;rounded=0;shadow=0;strokeWidth=1;" parent="WIyWlLk6GJQsqaUBKTNV-1" vertex="1">
          <mxGeometry x="20" y="20" width="170" height="300" as="geometry">
            <mxRectangle x="230" y="140" width="160" height="26" as="alternateBounds" />
          </mxGeometry>
        </mxCell>
        <mxCell id="TPlCCfwan0xk1k_wp_Np-109" value="Name : String" style="text;align=left;verticalAlign=top;spacingLeft=4;spacingRight=4;overflow=hidden;rotatable=0;points=[[0,0.5],[1,0.5]];portConstraint=eastwest;" parent="TPlCCfwan0xk1k_wp_Np-108" vertex="1">
          <mxGeometry y="26" width="170" height="26" as="geometry" />
        </mxCell>
        <mxCell id="TPlCCfwan0xk1k_wp_Np-110" value="branch : Branch()" style="text;align=left;verticalAlign=top;spacingLeft=4;spacingRight=4;overflow=hidden;rotatable=0;points=[[0,0.5],[1,0.5]];portConstraint=eastwest;rounded=0;shadow=0;html=0;" parent="TPlCCfwan0xk1k_wp_Np-108" vertex="1">
          <mxGeometry y="52" width="170" height="26" as="geometry" />
        </mxCell>
        <mxCell id="TPlCCfwan0xk1k_wp_Np-111" value="Email Address : email" style="text;align=left;verticalAlign=top;spacingLeft=4;spacingRight=4;overflow=hidden;rotatable=0;points=[[0,0.5],[1,0.5]];portConstraint=eastwest;rounded=0;shadow=0;html=0;" parent="TPlCCfwan0xk1k_wp_Np-108" vertex="1">
          <mxGeometry y="78" width="170" height="26" as="geometry" />
        </mxCell>
        <mxCell id="TPlCCfwan0xk1k_wp_Np-112" value="" style="line;html=1;strokeWidth=1;align=left;verticalAlign=middle;spacingTop=-1;spacingLeft=3;spacingRight=3;rotatable=0;labelPosition=right;points=[];portConstraint=eastwest;" parent="TPlCCfwan0xk1k_wp_Np-108" vertex="1">
          <mxGeometry y="104" width="170" height="8" as="geometry" />
        </mxCell>
        <mxCell id="TPlCCfwan0xk1k_wp_Np-113" value="Purchase Parking Pass" style="text;align=left;verticalAlign=top;spacingLeft=4;spacingRight=4;overflow=hidden;rotatable=0;points=[[0,0.5],[1,0.5]];portConstraint=eastwest;" parent="TPlCCfwan0xk1k_wp_Np-108" vertex="1">
          <mxGeometry y="112" width="170" height="26" as="geometry" />
        </mxCell>
        <mxCell id="TPlCCfwan0xk1k_wp_Np-127" value="UpdateComedianPopularity() :Â " style="text;strokeColor=none;fillColor=none;align=left;verticalAlign=top;spacingLeft=4;spacingRight=4;overflow=hidden;rotatable=0;points=[[0,0.5],[1,0.5]];portConstraint=eastwest;fontSize=12;fontFamily=Georgia;" parent="TPlCCfwan0xk1k_wp_Np-108" vertex="1">
          <mxGeometry y="138" width="170" height="26" as="geometry" />
        </mxCell>
        <mxCell id="TPlCCfwan0xk1k_wp_Np-159" value="getEventDetails :Â EVENTS()" style="text;align=left;verticalAlign=top;spacingLeft=4;spacingRight=4;overflow=hidden;rotatable=0;points=[[0,0.5],[1,0.5]];portConstraint=eastwest;" parent="TPlCCfwan0xk1k_wp_Np-108" vertex="1">
          <mxGeometry y="164" width="170" height="26" as="geometry" />
        </mxCell>
        <mxCell id="TPlCCfwan0xk1k_wp_Np-170" value="getComedianDetails :Â Comedians()" style="text;align=left;verticalAlign=top;spacingLeft=4;spacingRight=4;overflow=hidden;rotatable=0;points=[[0,0.5],[1,0.5]];portConstraint=eastwest;" parent="TPlCCfwan0xk1k_wp_Np-108" vertex="1">
          <mxGeometry y="190" width="170" height="26" as="geometry" />
        </mxCell>
        <mxCell id="TPlCCfwan0xk1k_wp_Np-178" value="SendMail_to_users() : null" style="text;align=left;verticalAlign=top;spacingLeft=4;spacingRight=4;overflow=hidden;rotatable=0;points=[[0,0.5],[1,0.5]];portConstraint=eastwest;" parent="TPlCCfwan0xk1k_wp_Np-108" vertex="1">
          <mxGeometry y="216" width="170" height="26" as="geometry" />
        </mxCell>
        <mxCell id="TPlCCfwan0xk1k_wp_Np-128" style="edgeStyle=orthogonalEdgeStyle;rounded=0;orthogonalLoop=1;jettySize=auto;html=1;exitX=1;exitY=0.5;exitDx=0;exitDy=0;entryX=-0.012;entryY=0.923;entryDx=0;entryDy=0;entryPerimeter=0;fontFamily=Georgia;fontSize=12;" parent="WIyWlLk6GJQsqaUBKTNV-1" source="TPlCCfwan0xk1k_wp_Np-111" target="zkfFHV4jXpPFQw0GAbJ--2" edge="1">
          <mxGeometry relative="1" as="geometry" />
        </mxCell>
        <mxCell id="TPlCCfwan0xk1k_wp_Np-129" value="0..*" style="resizable=0;align=left;verticalAlign=bottom;labelBackgroundColor=none;fontSize=16;fontStyle=1" parent="WIyWlLk6GJQsqaUBKTNV-1" connectable="0" vertex="1">
          <mxGeometry x="280" y="120" as="geometry" />
        </mxCell>
        <mxCell id="TPlCCfwan0xk1k_wp_Np-130" value="0..1" style="resizable=0;align=left;verticalAlign=bottom;labelBackgroundColor=none;fontSize=16;fontStyle=1" parent="WIyWlLk6GJQsqaUBKTNV-1" connectable="0" vertex="1">
          <mxGeometry x="180" y="102" as="geometry" />
        </mxCell>
        <mxCell id="TPlCCfwan0xk1k_wp_Np-135" value="EVENTS" style="swimlane;fontStyle=0;align=center;verticalAlign=top;childLayout=stackLayout;horizontal=1;startSize=26;horizontalStack=0;resizeParent=1;resizeLast=0;collapsible=1;marginBottom=0;rounded=0;shadow=0;strokeWidth=1;" parent="WIyWlLk6GJQsqaUBKTNV-1" vertex="1">
          <mxGeometry x="757" y="350" width="160" height="292" as="geometry">
            <mxRectangle x="550" y="140" width="160" height="26" as="alternateBounds" />
          </mxGeometry>
        </mxCell>
        <mxCell id="TPlCCfwan0xk1k_wp_Np-136" value="Schedule_id : int" style="text;align=left;verticalAlign=top;spacingLeft=4;spacingRight=4;overflow=hidden;rotatable=0;points=[[0,0.5],[1,0.5]];portConstraint=eastwest;" parent="TPlCCfwan0xk1k_wp_Np-135" vertex="1">
          <mxGeometry y="26" width="160" height="26" as="geometry" />
        </mxCell>
        <mxCell id="TPlCCfwan0xk1k_wp_Np-137" value="Date : date" style="text;align=left;verticalAlign=top;spacingLeft=4;spacingRight=4;overflow=hidden;rotatable=0;points=[[0,0.5],[1,0.5]];portConstraint=eastwest;rounded=0;shadow=0;html=0;" parent="TPlCCfwan0xk1k_wp_Np-135" vertex="1">
          <mxGeometry y="52" width="160" height="26" as="geometry" />
        </mxCell>
        <mxCell id="TPlCCfwan0xk1k_wp_Np-138" value="time : time" style="text;align=left;verticalAlign=top;spacingLeft=4;spacingRight=4;overflow=hidden;rotatable=0;points=[[0,0.5],[1,0.5]];portConstraint=eastwest;rounded=0;shadow=0;html=0;" parent="TPlCCfwan0xk1k_wp_Np-135" vertex="1">
          <mxGeometry y="78" width="160" height="26" as="geometry" />
        </mxCell>
        <mxCell id="TPlCCfwan0xk1k_wp_Np-146" value="Location : location" style="text;align=left;verticalAlign=top;spacingLeft=4;spacingRight=4;overflow=hidden;rotatable=0;points=[[0,0.5],[1,0.5]];portConstraint=eastwest;rounded=0;shadow=0;html=0;" parent="TPlCCfwan0xk1k_wp_Np-135" vertex="1">
          <mxGeometry y="104" width="160" height="26" as="geometry" />
        </mxCell>
        <mxCell id="TPlCCfwan0xk1k_wp_Np-139" value="Location : location" style="text;align=left;verticalAlign=top;spacingLeft=4;spacingRight=4;overflow=hidden;rotatable=0;points=[[0,0.5],[1,0.5]];portConstraint=eastwest;rounded=0;shadow=0;html=0;" parent="TPlCCfwan0xk1k_wp_Np-135" vertex="1">
          <mxGeometry y="130" width="160" height="26" as="geometry" />
        </mxCell>
        <mxCell id="TPlCCfwan0xk1k_wp_Np-140" value="BranchInfo : BranchÂ " style="text;align=left;verticalAlign=top;spacingLeft=4;spacingRight=4;overflow=hidden;rotatable=0;points=[[0,0.5],[1,0.5]];portConstraint=eastwest;rounded=0;shadow=0;html=0;" parent="TPlCCfwan0xk1k_wp_Np-135" vertex="1">
          <mxGeometry y="156" width="160" height="26" as="geometry" />
        </mxCell>
        <mxCell id="TPlCCfwan0xk1k_wp_Np-141" value="" style="line;html=1;strokeWidth=1;align=left;verticalAlign=middle;spacingTop=-1;spacingLeft=3;spacingRight=3;rotatable=0;labelPosition=right;points=[];portConstraint=eastwest;" parent="TPlCCfwan0xk1k_wp_Np-135" vertex="1">
          <mxGeometry y="182" width="160" height="6" as="geometry" />
        </mxCell>
        <mxCell id="TPlCCfwan0xk1k_wp_Np-142" value="ValidateEvent() : bool" style="text;align=left;verticalAlign=top;spacingLeft=4;spacingRight=4;overflow=hidden;rotatable=0;points=[[0,0.5],[1,0.5]];portConstraint=eastwest;" parent="TPlCCfwan0xk1k_wp_Np-135" vertex="1">
          <mxGeometry y="188" width="160" height="26" as="geometry" />
        </mxCell>
        <mxCell id="TPlCCfwan0xk1k_wp_Np-149" value="get_Ticket_Price() : int" style="text;align=left;verticalAlign=top;spacingLeft=4;spacingRight=4;overflow=hidden;rotatable=0;points=[[0,0.5],[1,0.5]];portConstraint=eastwest;" parent="TPlCCfwan0xk1k_wp_Np-135" vertex="1">
          <mxGeometry y="214" width="160" height="26" as="geometry" />
        </mxCell>
        <mxCell id="TPlCCfwan0xk1k_wp_Np-148" value="get_Event_Details() :int" style="text;align=left;verticalAlign=top;spacingLeft=4;spacingRight=4;overflow=hidden;rotatable=0;points=[[0,0.5],[1,0.5]];portConstraint=eastwest;" parent="TPlCCfwan0xk1k_wp_Np-135" vertex="1">
          <mxGeometry y="240" width="160" height="26" as="geometry" />
        </mxCell>
        <mxCell id="TPlCCfwan0xk1k_wp_Np-147" value="getAllTicketInfo() : json" style="text;align=left;verticalAlign=top;spacingLeft=4;spacingRight=4;overflow=hidden;rotatable=0;points=[[0,0.5],[1,0.5]];portConstraint=eastwest;" parent="TPlCCfwan0xk1k_wp_Np-135" vertex="1">
          <mxGeometry y="266" width="160" height="26" as="geometry" />
        </mxCell>
        <mxCell id="TPlCCfwan0xk1k_wp_Np-150" value="Comedians" style="swimlane;fontStyle=2;align=center;verticalAlign=top;childLayout=stackLayout;horizontal=1;startSize=26;horizontalStack=0;resizeParent=1;resizeLast=0;collapsible=1;marginBottom=0;rounded=0;shadow=0;strokeWidth=1;" parent="WIyWlLk6GJQsqaUBKTNV-1" vertex="1">
          <mxGeometry x="270" y="410" width="270" height="236" as="geometry">
            <mxRectangle x="230" y="140" width="160" height="26" as="alternateBounds" />
          </mxGeometry>
        </mxCell>
        <mxCell id="TPlCCfwan0xk1k_wp_Np-151" value="Name : String" style="text;align=left;verticalAlign=top;spacingLeft=4;spacingRight=4;overflow=hidden;rotatable=0;points=[[0,0.5],[1,0.5]];portConstraint=eastwest;" parent="TPlCCfwan0xk1k_wp_Np-150" vertex="1">
          <mxGeometry y="26" width="270" height="26" as="geometry" />
        </mxCell>
        <mxCell id="TPlCCfwan0xk1k_wp_Np-152" value="Comedian_id : int" style="text;align=left;verticalAlign=top;spacingLeft=4;spacingRight=4;overflow=hidden;rotatable=0;points=[[0,0.5],[1,0.5]];portConstraint=eastwest;rounded=0;shadow=0;html=0;" parent="TPlCCfwan0xk1k_wp_Np-150" vertex="1">
          <mxGeometry y="52" width="270" height="26" as="geometry" />
        </mxCell>
        <mxCell id="TPlCCfwan0xk1k_wp_Np-153" value="Phone Number" style="text;align=left;verticalAlign=top;spacingLeft=4;spacingRight=4;overflow=hidden;rotatable=0;points=[[0,0.5],[1,0.5]];portConstraint=eastwest;rounded=0;shadow=0;html=0;" parent="TPlCCfwan0xk1k_wp_Np-150" vertex="1">
          <mxGeometry y="78" width="270" height="26" as="geometry" />
        </mxCell>
        <mxCell id="TPlCCfwan0xk1k_wp_Np-155" value="&lt;span style=&quot;color: rgb(0, 0, 0); font-family: Helvetica; font-size: 12px; font-style: normal; font-variant-ligatures: normal; font-variant-caps: normal; font-weight: 400; letter-spacing: normal; orphans: 2; text-align: left; text-indent: 0px; text-transform: none; widows: 2; word-spacing: 0px; -webkit-text-stroke-width: 0px; background-color: rgb(251, 251, 251); text-decoration-thickness: initial; text-decoration-style: initial; text-decoration-color: initial; float: none; display: inline !important;&quot;&gt;Email Address : email&lt;/span&gt;" style="text;whiteSpace=wrap;html=1;fontSize=16;fontFamily=Georgia;" parent="TPlCCfwan0xk1k_wp_Np-150" vertex="1">
          <mxGeometry y="104" width="270" height="40" as="geometry" />
        </mxCell>
        <mxCell id="TPlCCfwan0xk1k_wp_Np-156" value="" style="line;html=1;strokeWidth=1;align=left;verticalAlign=middle;spacingTop=-1;spacingLeft=3;spacingRight=3;rotatable=0;labelPosition=right;points=[];portConstraint=eastwest;" parent="TPlCCfwan0xk1k_wp_Np-150" vertex="1">
          <mxGeometry y="144" width="270" height="8" as="geometry" />
        </mxCell>
        <mxCell id="TPlCCfwan0xk1k_wp_Np-157" value="getAllEvents : Events()" style="text;align=left;verticalAlign=top;spacingLeft=4;spacingRight=4;overflow=hidden;rotatable=0;points=[[0,0.5],[1,0.5]];portConstraint=eastwest;" parent="TPlCCfwan0xk1k_wp_Np-150" vertex="1">
          <mxGeometry y="152" width="270" height="26" as="geometry" />
        </mxCell>
        <mxCell id="TPlCCfwan0xk1k_wp_Np-158" value="getShowDetails :Â EVENTS()" style="text;align=left;verticalAlign=top;spacingLeft=4;spacingRight=4;overflow=hidden;rotatable=0;points=[[0,0.5],[1,0.5]];portConstraint=eastwest;" parent="TPlCCfwan0xk1k_wp_Np-150" vertex="1">
          <mxGeometry y="178" width="270" height="26" as="geometry" />
        </mxCell>
        <mxCell id="TPlCCfwan0xk1k_wp_Np-177" value="getComedianDetails : JSON" style="text;align=left;verticalAlign=top;spacingLeft=4;spacingRight=4;overflow=hidden;rotatable=0;points=[[0,0.5],[1,0.5]];portConstraint=eastwest;" parent="TPlCCfwan0xk1k_wp_Np-150" vertex="1">
          <mxGeometry y="204" width="270" height="26" as="geometry" />
        </mxCell>
        <mxCell id="TPlCCfwan0xk1k_wp_Np-163" value="0..*" style="resizable=0;align=left;verticalAlign=bottom;labelBackgroundColor=none;fontSize=16;fontStyle=1" parent="WIyWlLk6GJQsqaUBKTNV-1" connectable="0" vertex="1">
          <mxGeometry x="730" y="500" as="geometry" />
        </mxCell>
        <mxCell id="TPlCCfwan0xk1k_wp_Np-164" value="0..1" style="resizable=0;align=left;verticalAlign=bottom;labelBackgroundColor=none;fontSize=16;fontStyle=1" parent="WIyWlLk6GJQsqaUBKTNV-1" connectable="0" vertex="1">
          <mxGeometry x="540" y="528" as="geometry" />
        </mxCell>
        <mxCell id="TPlCCfwan0xk1k_wp_Np-166" value="" style="endArrow=none;html=1;rounded=0;fontFamily=Georgia;fontSize=16;exitX=1;exitY=0.5;exitDx=0;exitDy=0;" parent="WIyWlLk6GJQsqaUBKTNV-1" source="TPlCCfwan0xk1k_wp_Np-155" edge="1">
          <mxGeometry width="50" height="50" relative="1" as="geometry">
            <mxPoint x="580" y="480" as="sourcePoint" />
            <mxPoint x="750" y="480" as="targetPoint" />
            <Array as="points">
              <mxPoint x="640" y="534" />
              <mxPoint x="640" y="480" />
            </Array>
          </mxGeometry>
        </mxCell>
        <mxCell id="TPlCCfwan0xk1k_wp_Np-167" value="" style="endArrow=none;html=1;rounded=0;fontFamily=Georgia;fontSize=16;entryX=0.5;entryY=1;entryDx=0;entryDy=0;exitX=0;exitY=0.5;exitDx=0;exitDy=0;" parent="WIyWlLk6GJQsqaUBKTNV-1" source="TPlCCfwan0xk1k_wp_Np-155" target="TPlCCfwan0xk1k_wp_Np-108" edge="1">
          <mxGeometry width="50" height="50" relative="1" as="geometry">
            <mxPoint x="80" y="460" as="sourcePoint" />
            <mxPoint x="125" y="267" as="targetPoint" />
            <Array as="points">
              <mxPoint x="80" y="534" />
              <mxPoint x="80" y="370" />
              <mxPoint x="170" y="320" />
            </Array>
          </mxGeometry>
        </mxCell>
        <mxCell id="TPlCCfwan0xk1k_wp_Np-168" value="0..*" style="resizable=0;align=left;verticalAlign=bottom;labelBackgroundColor=none;fontSize=16;fontStyle=1" parent="WIyWlLk6GJQsqaUBKTNV-1" connectable="0" vertex="1">
          <mxGeometry x="240" y="528" as="geometry" />
        </mxCell>
        <mxCell id="TPlCCfwan0xk1k_wp_Np-169" value="0..*" style="resizable=0;align=left;verticalAlign=bottom;labelBackgroundColor=none;fontSize=16;fontStyle=1" parent="WIyWlLk6GJQsqaUBKTNV-1" connectable="0" vertex="1">
          <mxGeometry x="80" y="335" as="geometry">
            <mxPoint x="43" y="6" as="offset" />
          </mxGeometry>
        </mxCell>
        <mxCell id="zkfFHV4jXpPFQw0GAbJ--6" value="MessageQueue" style="swimlane;fontStyle=0;align=center;verticalAlign=top;childLayout=stackLayout;horizontal=1;startSize=26;horizontalStack=0;resizeParent=1;resizeLast=0;collapsible=1;marginBottom=0;rounded=0;shadow=0;strokeWidth=1;container=0;" parent="WIyWlLk6GJQsqaUBKTNV-1" vertex="1">
          <mxGeometry x="40" y="850" width="220" height="180" as="geometry">
            <mxRectangle x="130" y="380" width="160" height="26" as="alternateBounds" />
          </mxGeometry>
        </mxCell>
        <mxCell id="TPlCCfwan0xk1k_wp_Np-31" value="Message" style="swimlane;fontStyle=0;align=center;verticalAlign=top;childLayout=stackLayout;horizontal=1;startSize=26;horizontalStack=0;resizeParent=1;resizeLast=0;collapsible=1;marginBottom=0;rounded=0;shadow=0;strokeWidth=1;container=0;" parent="WIyWlLk6GJQsqaUBKTNV-1" vertex="1">
          <mxGeometry x="386" y="870" width="160" height="370" as="geometry">
            <mxRectangle x="550" y="140" width="160" height="26" as="alternateBounds" />
          </mxGeometry>
        </mxCell>
        <mxCell id="TPlCCfwan0xk1k_wp_Np-91" value="" style="edgeStyle=orthogonalEdgeStyle;rounded=0;orthogonalLoop=1;jettySize=auto;html=1;exitX=1;exitY=0.5;exitDx=0;exitDy=0;endArrow=none;" parent="WIyWlLk6GJQsqaUBKTNV-1" source="TPlCCfwan0xk1k_wp_Np-43" target="TPlCCfwan0xk1k_wp_Np-92" edge="1">
          <mxGeometry relative="1" as="geometry">
            <mxPoint x="730" y="1300" as="targetPoint" />
            <mxPoint x="546" y="1013" as="sourcePoint" />
            <Array as="points">
              <mxPoint x="570" y="1013" />
              <mxPoint x="570" y="1120" />
              <mxPoint x="620" y="1120" />
            </Array>
          </mxGeometry>
        </mxCell>
        <mxCell id="TPlCCfwan0xk1k_wp_Np-182" style="edgeStyle=orthogonalEdgeStyle;rounded=0;orthogonalLoop=1;jettySize=auto;html=1;exitX=1;exitY=0.5;exitDx=0;exitDy=0;entryX=-0.026;entryY=0.154;entryDx=0;entryDy=0;entryPerimeter=0;fontFamily=Georgia;fontSize=16;" parent="WIyWlLk6GJQsqaUBKTNV-1" source="TPlCCfwan0xk1k_wp_Np-92" target="TPlCCfwan0xk1k_wp_Np-82" edge="1">
          <mxGeometry relative="1" as="geometry" />
        </mxCell>
        <mxCell id="TPlCCfwan0xk1k_wp_Np-92" value="Uses" style="text;html=1;strokeColor=none;fillColor=none;align=center;verticalAlign=middle;whiteSpace=wrap;rounded=0;container=0;" parent="WIyWlLk6GJQsqaUBKTNV-1" vertex="1">
          <mxGeometry x="640" y="880" width="60" height="30" as="geometry" />
        </mxCell>
        <mxCell id="TPlCCfwan0xk1k_wp_Np-95" value="0..1" style="resizable=0;align=left;verticalAlign=bottom;labelBackgroundColor=none;fontSize=14;fontStyle=1;fontFamily=Georgia;container=0;" parent="WIyWlLk6GJQsqaUBKTNV-1" connectable="0" vertex="1">
          <mxGeometry x="546" y="1010" as="geometry" />
        </mxCell>
        <mxCell id="TPlCCfwan0xk1k_wp_Np-96" value="" style="endArrow=none;html=1;rounded=0;fontFamily=Georgia;fontSize=14;exitX=1;exitY=0.5;exitDx=0;exitDy=0;entryX=0;entryY=0.5;entryDx=0;entryDy=0;" parent="WIyWlLk6GJQsqaUBKTNV-1" source="TPlCCfwan0xk1k_wp_Np-61" target="TPlCCfwan0xk1k_wp_Np-43" edge="1">
          <mxGeometry width="50" height="50" relative="1" as="geometry">
            <mxPoint x="404" y="1390" as="sourcePoint" />
            <mxPoint x="454" y="1340" as="targetPoint" />
            <Array as="points">
              <mxPoint x="380" y="1340" />
              <mxPoint x="310" y="1150" />
            </Array>
          </mxGeometry>
        </mxCell>
        <mxCell id="TPlCCfwan0xk1k_wp_Np-99" value="0..1" style="resizable=0;align=left;verticalAlign=bottom;labelBackgroundColor=none;fontSize=14;fontStyle=1;fontFamily=Georgia;container=0;" parent="WIyWlLk6GJQsqaUBKTNV-1" connectable="0" vertex="1">
          <mxGeometry x="360" y="1010" as="geometry" />
        </mxCell>
        <mxCell id="TPlCCfwan0xk1k_wp_Np-105" style="edgeStyle=orthogonalEdgeStyle;rounded=0;orthogonalLoop=1;jettySize=auto;html=1;exitX=1;exitY=0.5;exitDx=0;exitDy=0;entryX=-0.025;entryY=0.077;entryDx=0;entryDy=0;entryPerimeter=0;fontFamily=Georgia;fontSize=12;" parent="WIyWlLk6GJQsqaUBKTNV-1" source="TPlCCfwan0xk1k_wp_Np-100" target="TPlCCfwan0xk1k_wp_Np-34" edge="1">
          <mxGeometry relative="1" as="geometry" />
        </mxCell>
        <mxCell id="TPlCCfwan0xk1k_wp_Np-106" value="0..1" style="resizable=0;align=left;verticalAlign=bottom;labelBackgroundColor=none;fontSize=14;fontStyle=1;fontFamily=Georgia;container=0;" parent="WIyWlLk6GJQsqaUBKTNV-1" connectable="0" vertex="1">
          <mxGeometry x="258.5" y="940" as="geometry" />
        </mxCell>
        <mxCell id="TPlCCfwan0xk1k_wp_Np-107" value="0..1" style="resizable=0;align=left;verticalAlign=bottom;labelBackgroundColor=none;fontSize=14;fontStyle=1;fontFamily=Georgia;container=0;" parent="WIyWlLk6GJQsqaUBKTNV-1" connectable="0" vertex="1">
          <mxGeometry x="360" y="942" as="geometry" />
        </mxCell>
        <mxCell id="TPlCCfwan0xk1k_wp_Np-123" style="edgeStyle=orthogonalEdgeStyle;rounded=0;orthogonalLoop=1;jettySize=auto;html=1;exitX=1;exitY=0.5;exitDx=0;exitDy=0;entryX=0;entryY=0.5;entryDx=0;entryDy=0;fontFamily=Georgia;fontSize=12;" parent="WIyWlLk6GJQsqaUBKTNV-1" source="TPlCCfwan0xk1k_wp_Np-39" target="41kQ8d5mnM5o8ySOcaNj-13" edge="1">
          <mxGeometry relative="1" as="geometry">
            <mxPoint x="540" y="941" as="sourcePoint" />
            <mxPoint x="722" y="950.002" as="targetPoint" />
          </mxGeometry>
        </mxCell>
        <mxCell id="zkfFHV4jXpPFQw0GAbJ--7" value="message_id : string" style="text;align=left;verticalAlign=top;spacingLeft=4;spacingRight=4;overflow=hidden;rotatable=0;points=[[0,0.5],[1,0.5]];portConstraint=eastwest;container=0;" parent="WIyWlLk6GJQsqaUBKTNV-1" vertex="1">
          <mxGeometry x="40" y="876" width="220" height="26" as="geometry" />
        </mxCell>
        <mxCell id="zkfFHV4jXpPFQw0GAbJ--8" value="waiting : bool" style="text;align=left;verticalAlign=top;spacingLeft=4;spacingRight=4;overflow=hidden;rotatable=0;points=[[0,0.5],[1,0.5]];portConstraint=eastwest;rounded=0;shadow=0;html=0;container=0;" parent="WIyWlLk6GJQsqaUBKTNV-1" vertex="1">
          <mxGeometry x="40" y="902" width="220" height="26" as="geometry" />
        </mxCell>
        <mxCell id="TPlCCfwan0xk1k_wp_Np-100" value="delivered : bool" style="text;strokeColor=none;fillColor=none;align=left;verticalAlign=top;spacingLeft=4;spacingRight=4;overflow=hidden;rotatable=0;points=[[0,0.5],[1,0.5]];portConstraint=eastwest;fontSize=12;fontFamily=Georgia;container=0;" parent="WIyWlLk6GJQsqaUBKTNV-1" vertex="1">
          <mxGeometry x="40" y="928" width="220" height="26" as="geometry" />
        </mxCell>
        <mxCell id="zkfFHV4jXpPFQw0GAbJ--9" value="" style="line;html=1;strokeWidth=1;align=left;verticalAlign=middle;spacingTop=-1;spacingLeft=3;spacingRight=3;rotatable=0;labelPosition=right;points=[];portConstraint=eastwest;container=0;" parent="WIyWlLk6GJQsqaUBKTNV-1" vertex="1">
          <mxGeometry x="40" y="954" width="220" height="8" as="geometry" />
        </mxCell>
        <mxCell id="TPlCCfwan0xk1k_wp_Np-104" value="priority_of_message() : FCFS (int)" style="text;strokeColor=none;fillColor=none;align=left;verticalAlign=top;spacingLeft=4;spacingRight=4;overflow=hidden;rotatable=0;points=[[0,0.5],[1,0.5]];portConstraint=eastwest;fontSize=12;fontFamily=Georgia;container=0;" parent="WIyWlLk6GJQsqaUBKTNV-1" vertex="1">
          <mxGeometry x="40" y="962" width="220" height="26" as="geometry" />
        </mxCell>
        <mxCell id="TPlCCfwan0xk1k_wp_Np-32" value="isRead" style="text;align=left;verticalAlign=top;spacingLeft=4;spacingRight=4;overflow=hidden;rotatable=0;points=[[0,0.5],[1,0.5]];portConstraint=eastwest;container=0;" parent="WIyWlLk6GJQsqaUBKTNV-1" vertex="1">
          <mxGeometry x="386" y="896" width="160" height="26" as="geometry" />
        </mxCell>
        <mxCell id="TPlCCfwan0xk1k_wp_Np-33" value="isSent" style="text;align=left;verticalAlign=top;spacingLeft=4;spacingRight=4;overflow=hidden;rotatable=0;points=[[0,0.5],[1,0.5]];portConstraint=eastwest;rounded=0;shadow=0;html=0;container=0;" parent="WIyWlLk6GJQsqaUBKTNV-1" vertex="1">
          <mxGeometry x="386" y="922" width="160" height="26" as="geometry" />
        </mxCell>
        <mxCell id="TPlCCfwan0xk1k_wp_Np-34" value="Subject" style="text;align=left;verticalAlign=top;spacingLeft=4;spacingRight=4;overflow=hidden;rotatable=0;points=[[0,0.5],[1,0.5]];portConstraint=eastwest;rounded=0;shadow=0;html=0;container=0;" parent="WIyWlLk6GJQsqaUBKTNV-1" vertex="1">
          <mxGeometry x="386" y="948" width="160" height="26" as="geometry" />
        </mxCell>
        <mxCell id="TPlCCfwan0xk1k_wp_Np-35" value="Content:strÂ " style="text;align=left;verticalAlign=top;spacingLeft=4;spacingRight=4;overflow=hidden;rotatable=0;points=[[0,0.5],[1,0.5]];portConstraint=eastwest;rounded=0;shadow=0;html=0;container=0;" parent="WIyWlLk6GJQsqaUBKTNV-1" vertex="1">
          <mxGeometry x="386" y="974" width="160" height="26" as="geometry" />
        </mxCell>
        <mxCell id="TPlCCfwan0xk1k_wp_Np-43" value="from:Email" style="text;strokeColor=none;fillColor=none;align=left;verticalAlign=top;spacingLeft=4;spacingRight=4;overflow=hidden;rotatable=0;points=[[0,0.5],[1,0.5]];portConstraint=eastwest;container=0;" parent="WIyWlLk6GJQsqaUBKTNV-1" vertex="1">
          <mxGeometry x="386" y="1000" width="160" height="26" as="geometry" />
        </mxCell>
        <mxCell id="TPlCCfwan0xk1k_wp_Np-36" value="to:Email" style="text;align=left;verticalAlign=top;spacingLeft=4;spacingRight=4;overflow=hidden;rotatable=0;points=[[0,0.5],[1,0.5]];portConstraint=eastwest;rounded=0;shadow=0;html=0;container=0;" parent="WIyWlLk6GJQsqaUBKTNV-1" vertex="1">
          <mxGeometry x="386" y="1026" width="160" height="26" as="geometry" />
        </mxCell>
        <mxCell id="TPlCCfwan0xk1k_wp_Np-102" value="mailbox : MailBox" style="text;strokeColor=none;fillColor=none;align=left;verticalAlign=top;spacingLeft=4;spacingRight=4;overflow=hidden;rotatable=0;points=[[0,0.5],[1,0.5]];portConstraint=eastwest;fontSize=12;fontFamily=Georgia;container=0;" parent="WIyWlLk6GJQsqaUBKTNV-1" vertex="1">
          <mxGeometry x="386" y="1052" width="160" height="26" as="geometry" />
        </mxCell>
        <mxCell id="TPlCCfwan0xk1k_wp_Np-45" value="Date" style="text;strokeColor=none;fillColor=none;align=left;verticalAlign=top;spacingLeft=4;spacingRight=4;overflow=hidden;rotatable=0;points=[[0,0.5],[1,0.5]];portConstraint=eastwest;container=0;" parent="WIyWlLk6GJQsqaUBKTNV-1" vertex="1">
          <mxGeometry x="386" y="1078" width="160" height="26" as="geometry" />
        </mxCell>
        <mxCell id="TPlCCfwan0xk1k_wp_Np-37" value="" style="line;html=1;strokeWidth=1;align=left;verticalAlign=middle;spacingTop=-1;spacingLeft=3;spacingRight=3;rotatable=0;labelPosition=right;points=[];portConstraint=eastwest;container=0;" parent="WIyWlLk6GJQsqaUBKTNV-1" vertex="1">
          <mxGeometry x="386" y="1104" width="160" height="6" as="geometry" />
        </mxCell>
        <mxCell id="TPlCCfwan0xk1k_wp_Np-48" value="Delete()" style="text;strokeColor=none;fillColor=none;align=left;verticalAlign=top;spacingLeft=4;spacingRight=4;overflow=hidden;rotatable=0;points=[[0,0.5],[1,0.5]];portConstraint=eastwest;container=0;" parent="WIyWlLk6GJQsqaUBKTNV-1" vertex="1">
          <mxGeometry x="386" y="1110" width="160" height="26" as="geometry" />
        </mxCell>
        <mxCell id="TPlCCfwan0xk1k_wp_Np-46" value="Attachement()" style="text;strokeColor=none;fillColor=none;align=left;verticalAlign=top;spacingLeft=4;spacingRight=4;overflow=hidden;rotatable=0;points=[[0,0.5],[1,0.5]];portConstraint=eastwest;container=0;" parent="WIyWlLk6GJQsqaUBKTNV-1" vertex="1">
          <mxGeometry x="386" y="1136" width="160" height="26" as="geometry" />
        </mxCell>
        <mxCell id="TPlCCfwan0xk1k_wp_Np-38" value="Read()" style="text;align=left;verticalAlign=top;spacingLeft=4;spacingRight=4;overflow=hidden;rotatable=0;points=[[0,0.5],[1,0.5]];portConstraint=eastwest;container=0;" parent="WIyWlLk6GJQsqaUBKTNV-1" vertex="1">
          <mxGeometry x="386" y="1162" width="160" height="26" as="geometry" />
        </mxCell>
        <mxCell id="TPlCCfwan0xk1k_wp_Np-39" value="Sent()" style="text;align=left;verticalAlign=top;spacingLeft=4;spacingRight=4;overflow=hidden;rotatable=0;points=[[0,0.5],[1,0.5]];portConstraint=eastwest;container=0;" parent="WIyWlLk6GJQsqaUBKTNV-1" vertex="1">
          <mxGeometry x="386" y="1188" width="160" height="26" as="geometry" />
        </mxCell>
        <mxCell id="TPlCCfwan0xk1k_wp_Np-172" style="edgeStyle=orthogonalEdgeStyle;rounded=0;orthogonalLoop=1;jettySize=auto;html=1;exitX=1;exitY=0.5;exitDx=0;exitDy=0;entryX=0.25;entryY=0;entryDx=0;entryDy=0;fontFamily=Georgia;fontSize=16;" parent="WIyWlLk6GJQsqaUBKTNV-1" source="TPlCCfwan0xk1k_wp_Np-159" target="TPlCCfwan0xk1k_wp_Np-135" edge="1">
          <mxGeometry relative="1" as="geometry">
            <Array as="points">
              <mxPoint x="190" y="310" />
              <mxPoint x="797" y="310" />
            </Array>
          </mxGeometry>
        </mxCell>
        <mxCell id="TPlCCfwan0xk1k_wp_Np-173" value="0..1" style="resizable=0;align=left;verticalAlign=bottom;labelBackgroundColor=none;fontSize=12;" parent="WIyWlLk6GJQsqaUBKTNV-1" connectable="0" vertex="1">
          <mxGeometry x="190" y="310" as="geometry" />
        </mxCell>
        <mxCell id="TPlCCfwan0xk1k_wp_Np-176" value="0..*" style="text;html=1;strokeColor=none;fillColor=none;align=center;verticalAlign=middle;whiteSpace=wrap;rounded=0;fontSize=16;fontFamily=Georgia;" parent="WIyWlLk6GJQsqaUBKTNV-1" vertex="1">
          <mxGeometry x="750" y="335" width="50" height="15" as="geometry" />
        </mxCell>
        <mxCell id="TPlCCfwan0xk1k_wp_Np-179" value="" style="group" parent="WIyWlLk6GJQsqaUBKTNV-1" vertex="1" connectable="0">
          <mxGeometry x="826" y="1090" width="324" height="220" as="geometry" />
        </mxCell>
        <mxCell id="TPlCCfwan0xk1k_wp_Np-115" value="User" style="swimlane;fontStyle=0;align=center;verticalAlign=top;childLayout=stackLayout;horizontal=1;startSize=26;horizontalStack=0;resizeParent=1;resizeLast=0;collapsible=1;marginBottom=0;rounded=0;shadow=0;strokeWidth=1;container=0;" parent="TPlCCfwan0xk1k_wp_Np-179" vertex="1">
          <mxGeometry width="324" height="220" as="geometry">
            <mxRectangle x="130" y="380" width="160" height="26" as="alternateBounds" />
          </mxGeometry>
        </mxCell>
        <mxCell id="TPlCCfwan0xk1k_wp_Np-116" value="Name : string" style="text;align=left;verticalAlign=top;spacingLeft=4;spacingRight=4;overflow=hidden;rotatable=0;points=[[0,0.5],[1,0.5]];portConstraint=eastwest;container=0;" parent="TPlCCfwan0xk1k_wp_Np-179" vertex="1">
          <mxGeometry y="34.87804878048781" width="324" height="34.87804878048781" as="geometry" />
        </mxCell>
        <mxCell id="TPlCCfwan0xk1k_wp_Np-117" value="Phone Number : string" style="text;align=left;verticalAlign=top;spacingLeft=4;spacingRight=4;overflow=hidden;rotatable=0;points=[[0,0.5],[1,0.5]];portConstraint=eastwest;rounded=0;shadow=0;html=0;container=0;" parent="TPlCCfwan0xk1k_wp_Np-179" vertex="1">
          <mxGeometry y="69.75609756097562" width="324" height="34.87804878048781" as="geometry" />
        </mxCell>
        <mxCell id="41kQ8d5mnM5o8ySOcaNj-13" value="login() : boolean" style="text;align=left;verticalAlign=top;spacingLeft=4;spacingRight=4;overflow=hidden;rotatable=0;points=[[0,0.5],[1,0.5]];portConstraint=eastwest;container=0;" parent="TPlCCfwan0xk1k_wp_Np-179" vertex="1">
          <mxGeometry y="104.63414634146342" width="324" height="34.87804878048781" as="geometry" />
        </mxCell>
        <mxCell id="TPlCCfwan0xk1k_wp_Np-118" value="Email : string" style="text;strokeColor=none;fillColor=none;align=left;verticalAlign=top;spacingLeft=4;spacingRight=4;overflow=hidden;rotatable=0;points=[[0,0.5],[1,0.5]];portConstraint=eastwest;fontSize=12;fontFamily=Georgia;container=0;" parent="TPlCCfwan0xk1k_wp_Np-179" vertex="1">
          <mxGeometry y="139.51219512195124" width="324" height="34.87804878048781" as="geometry" />
        </mxCell>
        <mxCell id="TPlCCfwan0xk1k_wp_Np-119" value="" style="line;html=1;strokeWidth=1;align=left;verticalAlign=middle;spacingTop=-1;spacingLeft=3;spacingRight=3;rotatable=0;labelPosition=right;points=[];portConstraint=eastwest;container=0;" parent="TPlCCfwan0xk1k_wp_Np-179" vertex="1">
          <mxGeometry y="174.39024390243904" width="324" height="10.731707317073171" as="geometry" />
        </mxCell>
        <mxCell id="TPlCCfwan0xk1k_wp_Np-122" value="clickonComedian() : send_mail(CafeEmailId)" style="text;strokeColor=none;fillColor=none;align=left;verticalAlign=top;spacingLeft=4;spacingRight=4;overflow=hidden;rotatable=0;points=[[0,0.5],[1,0.5]];portConstraint=eastwest;container=0;" parent="TPlCCfwan0xk1k_wp_Np-179" vertex="1">
          <mxGeometry y="185.12195121951223" width="324" height="34.87804878048781" as="geometry" />
        </mxCell>
        <mxCell id="TPlCCfwan0xk1k_wp_Np-181" value="0..1" style="resizable=0;align=left;verticalAlign=bottom;labelBackgroundColor=none;fontSize=14;fontStyle=1;fontFamily=Georgia;container=0;" parent="WIyWlLk6GJQsqaUBKTNV-1" connectable="0" vertex="1">
          <mxGeometry x="546" y="1220" as="geometry" />
        </mxCell>
        <mxCell id="TPlCCfwan0xk1k_wp_Np-183" value="0..*" style="resizable=0;align=left;verticalAlign=bottom;labelBackgroundColor=none;fontSize=14;fontStyle=1;fontFamily=Georgia;container=0;" parent="WIyWlLk6GJQsqaUBKTNV-1" connectable="0" vertex="1">
          <mxGeometry x="775" y="940" as="geometry" />
        </mxCell>
        <mxCell id="TPlCCfwan0xk1k_wp_Np-184" value="0.*" style="resizable=0;align=left;verticalAlign=bottom;labelBackgroundColor=none;fontSize=14;fontStyle=1;fontFamily=Georgia;container=0;direction=south;" parent="WIyWlLk6GJQsqaUBKTNV-1" connectable="0" vertex="1">
          <mxGeometry x="790" y="1175" as="geometry" />
        </mxCell>
        <mxCell id="TPlCCfwan0xk1k_wp_Np-185" value="" style="group" parent="WIyWlLk6GJQsqaUBKTNV-1" vertex="1" connectable="0">
          <mxGeometry x="800" y="840" width="153" height="182" as="geometry" />
        </mxCell>
        <mxCell id="TPlCCfwan0xk1k_wp_Np-79" value="Attachment" style="swimlane;fontStyle=0;align=center;verticalAlign=top;childLayout=stackLayout;horizontal=1;startSize=26;horizontalStack=0;resizeParent=1;resizeLast=0;collapsible=1;marginBottom=0;rounded=0;shadow=0;strokeWidth=1;container=0;" parent="TPlCCfwan0xk1k_wp_Np-185" vertex="1">
          <mxGeometry width="153" height="182" as="geometry">
            <mxRectangle x="550" y="140" width="160" height="26" as="alternateBounds" />
          </mxGeometry>
        </mxCell>
        <mxCell id="TPlCCfwan0xk1k_wp_Np-80" value="id" style="text;align=left;verticalAlign=top;spacingLeft=4;spacingRight=4;overflow=hidden;rotatable=0;points=[[0,0.5],[1,0.5]];portConstraint=eastwest;container=0;" parent="TPlCCfwan0xk1k_wp_Np-185" vertex="1">
          <mxGeometry y="26" width="153" height="26" as="geometry" />
        </mxCell>
        <mxCell id="TPlCCfwan0xk1k_wp_Np-81" value="textfile : str" style="text;align=left;verticalAlign=top;spacingLeft=4;spacingRight=4;overflow=hidden;rotatable=0;points=[[0,0.5],[1,0.5]];portConstraint=eastwest;rounded=0;shadow=0;html=0;container=0;" parent="TPlCCfwan0xk1k_wp_Np-185" vertex="1">
          <mxGeometry y="52" width="153" height="26" as="geometry" />
        </mxCell>
        <mxCell id="TPlCCfwan0xk1k_wp_Np-82" value="Video : drive_link" style="text;align=left;verticalAlign=top;spacingLeft=4;spacingRight=4;overflow=hidden;rotatable=0;points=[[0,0.5],[1,0.5]];portConstraint=eastwest;rounded=0;shadow=0;html=0;container=0;" parent="TPlCCfwan0xk1k_wp_Np-185" vertex="1">
          <mxGeometry y="78" width="153" height="26" as="geometry" />
        </mxCell>
        <mxCell id="TPlCCfwan0xk1k_wp_Np-83" value="image : drive_link" style="text;align=left;verticalAlign=top;spacingLeft=4;spacingRight=4;overflow=hidden;rotatable=0;points=[[0,0.5],[1,0.5]];portConstraint=eastwest;rounded=0;shadow=0;html=0;container=0;" parent="TPlCCfwan0xk1k_wp_Np-185" vertex="1">
          <mxGeometry y="104" width="153" height="26" as="geometry" />
        </mxCell>
        <mxCell id="TPlCCfwan0xk1k_wp_Np-89" value="size_in_kb : floatÂ " style="text;align=left;verticalAlign=top;spacingLeft=4;spacingRight=4;overflow=hidden;rotatable=0;points=[[0,0.5],[1,0.5]];portConstraint=eastwest;rounded=0;shadow=0;html=0;container=0;" parent="TPlCCfwan0xk1k_wp_Np-185" vertex="1">
          <mxGeometry y="130" width="153" height="26" as="geometry" />
        </mxCell>
        <mxCell id="TPlCCfwan0xk1k_wp_Np-84" value="extension : str" style="text;align=left;verticalAlign=top;spacingLeft=4;spacingRight=4;overflow=hidden;rotatable=0;points=[[0,0.5],[1,0.5]];portConstraint=eastwest;rounded=0;shadow=0;html=0;container=0;" parent="TPlCCfwan0xk1k_wp_Np-185" vertex="1">
          <mxGeometry y="156" width="153" height="26" as="geometry" />
        </mxCell>
        <mxCell id="TPlCCfwan0xk1k_wp_Np-187" value="" style="group" parent="WIyWlLk6GJQsqaUBKTNV-1" vertex="1" connectable="0">
          <mxGeometry x="170" y="1330" width="190" height="200" as="geometry" />
        </mxCell>
        <mxCell id="TPlCCfwan0xk1k_wp_Np-50" value="MailBox" style="swimlane;fontStyle=0;align=center;verticalAlign=top;childLayout=stackLayout;horizontal=1;startSize=26;horizontalStack=0;resizeParent=1;resizeLast=0;collapsible=1;marginBottom=0;rounded=0;shadow=0;strokeWidth=1;container=0;" parent="TPlCCfwan0xk1k_wp_Np-187" vertex="1">
          <mxGeometry x="7" width="163" height="200" as="geometry">
            <mxRectangle x="550" y="140" width="160" height="26" as="alternateBounds" />
          </mxGeometry>
        </mxCell>
        <mxCell id="TPlCCfwan0xk1k_wp_Np-64" value="1" style="resizable=0;align=right;verticalAlign=bottom;labelBackgroundColor=none;fontSize=12;container=0;" parent="TPlCCfwan0xk1k_wp_Np-187" connectable="0" vertex="1">
          <mxGeometry y="73" as="geometry" />
        </mxCell>
        <mxCell id="TPlCCfwan0xk1k_wp_Np-97" value="0..*" style="resizable=0;align=left;verticalAlign=bottom;labelBackgroundColor=none;fontSize=14;fontStyle=1;fontFamily=Georgia;container=0;" parent="TPlCCfwan0xk1k_wp_Np-187" connectable="0" vertex="1">
          <mxGeometry x="190" y="110" as="geometry" />
        </mxCell>
        <mxCell id="TPlCCfwan0xk1k_wp_Np-51" value="id : str" style="text;align=left;verticalAlign=top;spacingLeft=4;spacingRight=4;overflow=hidden;rotatable=0;points=[[0,0.5],[1,0.5]];portConstraint=eastwest;container=0;" parent="TPlCCfwan0xk1k_wp_Np-187" vertex="1">
          <mxGeometry x="7" y="26" width="163" height="26" as="geometry" />
        </mxCell>
        <mxCell id="TPlCCfwan0xk1k_wp_Np-58" value="" style="line;html=1;strokeWidth=1;align=left;verticalAlign=middle;spacingTop=-1;spacingLeft=3;spacingRight=3;rotatable=0;labelPosition=right;points=[];portConstraint=eastwest;container=0;" parent="TPlCCfwan0xk1k_wp_Np-187" vertex="1">
          <mxGeometry x="7" y="52" width="163" height="6" as="geometry" />
        </mxCell>
        <mxCell id="TPlCCfwan0xk1k_wp_Np-59" value="DeleteAllMessages()" style="text;strokeColor=none;fillColor=none;align=left;verticalAlign=top;spacingLeft=4;spacingRight=4;overflow=hidden;rotatable=0;points=[[0,0.5],[1,0.5]];portConstraint=eastwest;container=0;" parent="TPlCCfwan0xk1k_wp_Np-187" vertex="1">
          <mxGeometry x="7" y="58" width="163" height="26" as="geometry" />
        </mxCell>
        <mxCell id="TPlCCfwan0xk1k_wp_Np-60" value="CountAllMessages()" style="text;strokeColor=none;fillColor=none;align=left;verticalAlign=top;spacingLeft=4;spacingRight=4;overflow=hidden;rotatable=0;points=[[0,0.5],[1,0.5]];portConstraint=eastwest;container=0;" parent="TPlCCfwan0xk1k_wp_Np-187" vertex="1">
          <mxGeometry x="7" y="84" width="163" height="26" as="geometry" />
        </mxCell>
        <mxCell id="TPlCCfwan0xk1k_wp_Np-61" value="CountReadMessages()" style="text;strokeColor=none;fillColor=none;align=left;verticalAlign=top;spacingLeft=4;spacingRight=4;overflow=hidden;rotatable=0;points=[[0,0.5],[1,0.5]];portConstraint=eastwest;container=0;" parent="TPlCCfwan0xk1k_wp_Np-187" vertex="1">
          <mxGeometry x="7" y="110" width="163" height="26" as="geometry" />
        </mxCell>
        <mxCell id="TPlCCfwan0xk1k_wp_Np-62" value="CountUnReadMessages()" style="text;align=left;verticalAlign=top;spacingLeft=4;spacingRight=4;overflow=hidden;rotatable=0;points=[[0,0.5],[1,0.5]];portConstraint=eastwest;container=0;" parent="TPlCCfwan0xk1k_wp_Np-187" vertex="1">
          <mxGeometry x="7" y="136" width="163" height="26" as="geometry" />
        </mxCell>
        <mxCell id="TPlCCfwan0xk1k_wp_Np-101" value="Send_mail(Email_id) : bool" style="text;align=left;verticalAlign=top;spacingLeft=4;spacingRight=4;overflow=hidden;rotatable=0;points=[[0,0.5],[1,0.5]];portConstraint=eastwest;container=0;" parent="TPlCCfwan0xk1k_wp_Np-187" vertex="1">
          <mxGeometry x="7" y="162" width="163" height="26" as="geometry" />
        </mxCell>
        <mxCell id="TPlCCfwan0xk1k_wp_Np-188" value="" style="endArrow=classic;html=1;rounded=0;fontFamily=Georgia;fontSize=16;exitX=-0.019;exitY=0.861;exitDx=0;exitDy=0;exitPerimeter=0;entryX=1;entryY=0.5;entryDx=0;entryDy=0;" parent="WIyWlLk6GJQsqaUBKTNV-1" source="TPlCCfwan0xk1k_wp_Np-118" target="TPlCCfwan0xk1k_wp_Np-101" edge="1">
          <mxGeometry width="50" height="50" relative="1" as="geometry">
            <mxPoint x="490" y="1370" as="sourcePoint" />
            <mxPoint x="540" y="1320" as="targetPoint" />
            <Array as="points">
              <mxPoint x="760" y="1221" />
              <mxPoint x="760" y="1505" />
            </Array>
          </mxGeometry>
        </mxCell>
        <mxCell id="TPlCCfwan0xk1k_wp_Np-189" value="0..1" style="text;html=1;strokeColor=none;fillColor=none;align=center;verticalAlign=middle;whiteSpace=wrap;rounded=0;fontSize=16;fontFamily=Georgia;" parent="WIyWlLk6GJQsqaUBKTNV-1" vertex="1">
          <mxGeometry x="775" y="1233" width="60" height="30" as="geometry" />
        </mxCell>
        <mxCell id="TPlCCfwan0xk1k_wp_Np-190" value="0..*" style="text;html=1;strokeColor=none;fillColor=none;align=center;verticalAlign=middle;whiteSpace=wrap;rounded=0;fontSize=16;fontFamily=Georgia;" parent="WIyWlLk6GJQsqaUBKTNV-1" vertex="1">
          <mxGeometry x="330" y="1470" width="60" height="30" as="geometry" />
        </mxCell>
        <mxCell id="TPlCCfwan0xk1k_wp_Np-192" value="0..1" style="text;html=1;strokeColor=none;fillColor=none;align=center;verticalAlign=middle;whiteSpace=wrap;rounded=0;fontSize=16;fontFamily=Georgia;" parent="WIyWlLk6GJQsqaUBKTNV-1" vertex="1">
          <mxGeometry x="40" y="820" width="60" height="30" as="geometry" />
        </mxCell>
        <mxCell id="TPlCCfwan0xk1k_wp_Np-193" value="0..1" style="text;html=1;strokeColor=none;fillColor=none;align=center;verticalAlign=middle;whiteSpace=wrap;rounded=0;fontSize=16;fontFamily=Georgia;" parent="WIyWlLk6GJQsqaUBKTNV-1" vertex="1">
          <mxGeometry x="10" y="320" width="60" height="30" as="geometry" />
        </mxCell>
      </root>
    </mxGraphModel>
  </diagram>
</mxfile>
